<svg xmlns="http://www.w3.org/2000/svg" xmlns:xlink="http://www.w3.org/1999/xlink" viewBox="0,0,256,256" width="100px" height="100px"><g transform="translate(96,96) scale(0.25,0.25)"><g fill="#000000" fill-rule="nonzero" stroke="none" stroke-width="1" stroke-linecap="butt" stroke-linejoin="miter" stroke-miterlimit="10" stroke-dasharray="" stroke-dashoffset="0" font-family="none" font-weight="none" font-size="none" text-anchor="none" style="mix-blend-mode: normal"><g transform="scale(5.12,5.12)"><path d="M16,6c-1.16016,0 -2,0.83984 -2,2v3h-11c-1.16016,0 -2,0.83984 -2,2v28c0,1.16016 0.83984,2 2,2h44c1.16016,0 2,-0.83984 2,-2v-28c0,-1.16016 -0.83984,-2 -2,-2h-11v-3c0,-1.16016 -0.83984,-2 -2,-2zM25,13c7.19922,0 13,5.80078 13,13c0,7.19922 -5.80078,13 -13,13c-7.19922,0 -13,-5.80078 -13,-13c0,-7.19922 5.80078,-13 13,-13zM43,15c1.10547,0 2,0.89453 2,2c0,1.10547 -0.89453,2 -2,2c-1.10547,0 -2,-0.89453 -2,-2c0,-1.10547 0.89453,-2 2,-2zM25,16c-5.5,0 -10,4.5 -10,10c0,5.5 4.5,10 10,10c5.5,0 10,-4.5 10,-10c0,-5.5 -4.5,-10 -10,-10z"></path></g></g></g></svg>